<mxfile host="app.diagrams.net" agent="Mozilla/5.0 (Windows NT 10.0; Win64; x64; rv:133.0) Gecko/20100101 Firefox/133.0" version="26.0.3">
  <diagram id="C5RBs43oDa-KdzZeNtuy" name="Page-1">
    <mxGraphModel dx="1373" dy="1075" grid="1" gridSize="10" guides="1" tooltips="1" connect="1" arrows="1" fold="1" page="0" pageScale="1" pageWidth="827" pageHeight="1169" background="none" math="0" shadow="0">
      <root>
        <mxCell id="WIyWlLk6GJQsqaUBKTNV-0" />
        <mxCell id="WIyWlLk6GJQsqaUBKTNV-1" parent="WIyWlLk6GJQsqaUBKTNV-0" />
        <mxCell id="XD86bAeadn-RaEVREmnv-2" style="edgeStyle=orthogonalEdgeStyle;rounded=0;orthogonalLoop=1;jettySize=auto;html=1;entryX=0;entryY=1;entryDx=0;entryDy=0;" edge="1" parent="WIyWlLk6GJQsqaUBKTNV-1" source="XD86bAeadn-RaEVREmnv-0">
          <mxGeometry relative="1" as="geometry">
            <mxPoint x="200" y="470" as="targetPoint" />
          </mxGeometry>
        </mxCell>
        <mxCell id="XD86bAeadn-RaEVREmnv-4" value="&lt;div&gt;Post&lt;/div&gt;&lt;div&gt;/correspondentes&lt;br&gt; &lt;/div&gt;" style="edgeLabel;html=1;align=center;verticalAlign=middle;resizable=0;points=[];" vertex="1" connectable="0" parent="XD86bAeadn-RaEVREmnv-2">
          <mxGeometry x="-0.2333" relative="1" as="geometry">
            <mxPoint as="offset" />
          </mxGeometry>
        </mxCell>
        <mxCell id="XD86bAeadn-RaEVREmnv-0" value="Actor" style="shape=umlActor;verticalLabelPosition=bottom;verticalAlign=top;html=1;outlineConnect=0;" vertex="1" parent="WIyWlLk6GJQsqaUBKTNV-1">
          <mxGeometry y="440" width="30" height="60" as="geometry" />
        </mxCell>
        <mxCell id="XD86bAeadn-RaEVREmnv-8" value="client intranet" style="text;html=1;align=center;verticalAlign=middle;resizable=0;points=[];autosize=1;strokeColor=none;fillColor=none;" vertex="1" parent="WIyWlLk6GJQsqaUBKTNV-1">
          <mxGeometry x="-30" y="410" width="90" height="30" as="geometry" />
        </mxCell>
        <mxCell id="XD86bAeadn-RaEVREmnv-9" value="&lt;div&gt;/monorepo-backend&lt;/div&gt;" style="text;html=1;align=center;verticalAlign=middle;resizable=0;points=[];autosize=1;strokeColor=none;fillColor=none;" vertex="1" parent="WIyWlLk6GJQsqaUBKTNV-1">
          <mxGeometry x="260" y="560" width="130" height="30" as="geometry" />
        </mxCell>
        <mxCell id="XD86bAeadn-RaEVREmnv-26" value="return" style="html=1;verticalAlign=bottom;endArrow=open;dashed=1;endSize=8;curved=0;rounded=0;exitX=-0.001;exitY=0.78;exitDx=0;exitDy=0;exitPerimeter=0;" edge="1" parent="WIyWlLk6GJQsqaUBKTNV-1" source="XD86bAeadn-RaEVREmnv-34">
          <mxGeometry relative="1" as="geometry">
            <mxPoint x="480" y="540" as="sourcePoint" />
            <mxPoint x="381" y="520" as="targetPoint" />
          </mxGeometry>
        </mxCell>
        <mxCell id="XD86bAeadn-RaEVREmnv-29" value="" style="group" vertex="1" connectable="0" parent="WIyWlLk6GJQsqaUBKTNV-1">
          <mxGeometry x="200" y="380" width="180" height="180" as="geometry" />
        </mxCell>
        <mxCell id="XD86bAeadn-RaEVREmnv-27" value="&lt;table border=&quot;1&quot; width=&quot;100%&quot; height=&quot;100%&quot; cellpadding=&quot;4&quot; style=&quot;width: 100%; height: 100%; border-collapse: collapse; background-color: rgb(255, 255, 255);&quot;&gt;&lt;tbody&gt;&lt;tr align=&quot;left&quot;&gt;&lt;th style=&quot;background-color: light-dark(rgb(212, 225, 245), rgb(18, 18, 18));&quot;&gt;&lt;font style=&quot;font-size: 16px;&quot;&gt;intranet-connector&lt;/font&gt;&lt;/th&gt;&lt;/tr&gt;&lt;tr&gt;&lt;td style=&quot;&quot; align=&quot;center&quot;&gt;request&lt;/td&gt;&lt;/tr&gt;&lt;tr&gt;&lt;td align=&quot;center&quot;&gt;&lt;br&gt;validate payload service&lt;br&gt;&lt;br&gt;&lt;br&gt;&lt;br&gt;sendToPCF service&lt;br&gt;&lt;/td&gt;&lt;/tr&gt;&lt;/tbody&gt;&lt;/table&gt;" style="text;html=1;whiteSpace=wrap;strokeColor=#121212;fillColor=#D4E1F5;overflow=fill;shadow=0;strokeWidth=4;" vertex="1" parent="XD86bAeadn-RaEVREmnv-29">
          <mxGeometry width="180" height="180" as="geometry" />
        </mxCell>
        <mxCell id="XD86bAeadn-RaEVREmnv-28" value="" style="endArrow=classic;html=1;rounded=0;entryX=0.5;entryY=0.833;entryDx=0;entryDy=0;entryPerimeter=0;" edge="1" parent="XD86bAeadn-RaEVREmnv-29" target="XD86bAeadn-RaEVREmnv-27">
          <mxGeometry width="50" height="50" relative="1" as="geometry">
            <mxPoint x="90" y="120" as="sourcePoint" />
            <mxPoint x="90" y="10" as="targetPoint" />
            <Array as="points">
              <mxPoint x="90" y="110" />
            </Array>
          </mxGeometry>
        </mxCell>
        <mxCell id="XD86bAeadn-RaEVREmnv-31" style="edgeStyle=orthogonalEdgeStyle;rounded=0;orthogonalLoop=1;jettySize=auto;html=1;entryX=0;entryY=0.5;entryDx=0;entryDy=0;exitX=1;exitY=0.5;exitDx=0;exitDy=0;" edge="1" parent="WIyWlLk6GJQsqaUBKTNV-1" source="XD86bAeadn-RaEVREmnv-27" target="XD86bAeadn-RaEVREmnv-34">
          <mxGeometry relative="1" as="geometry">
            <mxPoint x="380" y="490" as="sourcePoint" />
            <mxPoint x="480" y="490" as="targetPoint" />
            <Array as="points" />
          </mxGeometry>
        </mxCell>
        <mxCell id="XD86bAeadn-RaEVREmnv-32" value="&lt;div&gt;Post&lt;/div&gt;&lt;div&gt;/unit&lt;br&gt; &lt;/div&gt;" style="edgeLabel;html=1;align=center;verticalAlign=middle;resizable=0;points=[];" vertex="1" connectable="0" parent="XD86bAeadn-RaEVREmnv-31">
          <mxGeometry x="-0.2333" relative="1" as="geometry">
            <mxPoint as="offset" />
          </mxGeometry>
        </mxCell>
        <mxCell id="XD86bAeadn-RaEVREmnv-33" value="" style="group" vertex="1" connectable="0" parent="WIyWlLk6GJQsqaUBKTNV-1">
          <mxGeometry x="530" y="380" width="180" height="180" as="geometry" />
        </mxCell>
        <mxCell id="XD86bAeadn-RaEVREmnv-34" value="&lt;table border=&quot;1&quot; width=&quot;100%&quot; height=&quot;100%&quot; cellpadding=&quot;4&quot; style=&quot;width: 100%; height: 100%; border-collapse: collapse; background-color: rgb(255, 255, 255);&quot;&gt;&lt;tbody&gt;&lt;tr align=&quot;left&quot;&gt;&lt;th style=&quot;background-color: light-dark(rgb(212, 225, 245), rgb(18, 18, 18));&quot;&gt;&lt;font style=&quot;font-size: 16px;&quot;&gt;pcf-connector&lt;/font&gt;&lt;br&gt;&lt;/th&gt;&lt;/tr&gt;&lt;tr&gt;&lt;td style=&quot;&quot; align=&quot;center&quot;&gt;request&lt;/td&gt;&lt;/tr&gt;&lt;tr&gt;&lt;td align=&quot;center&quot;&gt;&lt;br&gt;validate payload service&lt;br&gt;&lt;br&gt;&lt;br&gt;&lt;br&gt;sendToPCF service&lt;br&gt;&lt;/td&gt;&lt;/tr&gt;&lt;/tbody&gt;&lt;/table&gt;" style="text;html=1;whiteSpace=wrap;strokeColor=#121212;fillColor=#D4E1F5;overflow=fill;shadow=0;strokeWidth=4;" vertex="1" parent="XD86bAeadn-RaEVREmnv-33">
          <mxGeometry width="180" height="180" as="geometry" />
        </mxCell>
        <mxCell id="XD86bAeadn-RaEVREmnv-35" value="" style="endArrow=classic;html=1;rounded=0;entryX=0.5;entryY=0.833;entryDx=0;entryDy=0;entryPerimeter=0;" edge="1" parent="XD86bAeadn-RaEVREmnv-33" target="XD86bAeadn-RaEVREmnv-34">
          <mxGeometry width="50" height="50" relative="1" as="geometry">
            <mxPoint x="90" y="120" as="sourcePoint" />
            <mxPoint x="90" y="10" as="targetPoint" />
            <Array as="points">
              <mxPoint x="90" y="110" />
            </Array>
          </mxGeometry>
        </mxCell>
        <mxCell id="XD86bAeadn-RaEVREmnv-36" value="&lt;div&gt;/gateway-futuro-financeira&lt;/div&gt;" style="text;html=1;align=center;verticalAlign=middle;resizable=0;points=[];autosize=1;strokeColor=none;fillColor=none;" vertex="1" parent="WIyWlLk6GJQsqaUBKTNV-1">
          <mxGeometry x="510" y="560" width="160" height="30" as="geometry" />
        </mxCell>
      </root>
    </mxGraphModel>
  </diagram>
</mxfile>
